<svg width="218" height="61" viewBox="0 0 218 61" fill="none" xmlns="http://www.w3.org/2000/svg">
<g clip-path="url(#clip0_380_656)">
<path d="M181.067 0.266952H176.8C176.376 0.252052 175.953 0.324632 175.558 0.480174C175.163 0.635716 174.804 0.870892 174.504 1.17106C174.204 1.47123 173.969 1.82997 173.813 2.22496C173.658 2.61994 173.585 3.04271 173.6 3.46695V31.467H192.267L193.867 25.867H181.067V0.266952ZM204.533 0.266952H200.267C199.842 0.252052 199.42 0.324632 199.025 0.480174C198.63 0.635716 198.271 0.870892 197.971 1.17106C197.671 1.47123 197.435 1.82997 197.28 2.22496C197.124 2.61994 197.052 3.04271 197.067 3.46695V31.467H216L217.6 25.867H204.8V0.266952H204.533ZM52.2666 3.46695V20.0003C52.3533 20.8392 52.2564 21.6869 51.9826 22.4846C51.7088 23.2823 51.2648 24.0109 50.6812 24.6198C50.0977 25.2287 49.3886 25.7034 48.6033 26.0108C47.818 26.3183 46.9751 26.4512 46.1333 26.4003C45.296 26.4333 44.4613 26.2882 43.6843 25.9746C42.9073 25.6609 42.2057 25.1859 41.6259 24.581C41.0462 23.976 40.6014 23.2548 40.3211 22.4652C40.0408 21.6755 39.9314 20.8354 40 20.0003V0.266952H32.5333V18.9336C32.5333 27.7336 37.6 32.0003 46.1333 32.0003C54.6666 32.0003 59.7333 27.7336 59.7333 18.9336V0.266952H55.4666C54.6222 0.280684 53.8162 0.622235 53.2191 1.2194C52.6219 1.81657 52.2804 2.62254 52.2666 3.46695ZM156 18.1336H166.667V12.5336H156V5.86695H169.067V0.266952H148.533V28.267C148.508 28.6714 148.565 29.0769 148.7 29.459C148.835 29.841 149.046 30.192 149.319 30.4907C149.593 30.7895 149.925 31.0299 150.294 31.1976C150.663 31.3654 151.061 31.457 151.467 31.467H168.267L169.867 25.867H156V18.1336ZM120 16.0003C119.852 18.0238 120.133 20.0558 120.824 21.9635C121.515 23.8712 122.6 25.6116 124.01 27.0713C125.419 28.5309 127.12 29.6768 129.003 30.4343C130.885 31.1917 132.906 31.5436 134.933 31.467H143.2V25.867H138.667C133.067 25.867 127.733 24.0003 127.733 16.0003C127.733 8.00029 133.067 6.13362 138.667 6.13362H143.2V0.266952H134.933C126.4 0.266952 120 6.13362 120 16.0003ZM13.8666 0.266952H3.19995C2.77571 0.252052 2.35294 0.324632 1.95796 0.480174C1.56297 0.635716 1.20423 0.870892 0.904063 1.17106C0.603893 1.47123 0.368718 1.82997 0.213176 2.22496C0.0576333 2.61994 -0.0149467 3.04271 -4.70258e-05 3.46695V31.467H13.8666C15.8941 31.5436 17.915 31.1917 19.7972 30.4343C21.6795 29.6768 23.3808 28.5309 24.7901 27.0713C26.1994 25.6116 27.285 23.8712 27.9759 21.9635C28.6669 20.0558 28.9477 18.0238 28.8 16.0003C28.8 6.13362 22.4 0.266952 13.8666 0.266952ZM10.4 25.867H7.73329V6.13362H10.4C16 6.13362 21.3333 8.00029 21.3333 16.0003C21.3333 24.0003 16 25.867 10.4 25.867ZM214.133 6.93362C214.593 6.94844 215.05 6.86892 215.477 6.69995C215.905 6.53098 216.293 6.27616 216.618 5.95125C216.943 5.62633 217.197 5.23823 217.366 4.81093C217.535 4.38363 217.615 3.92621 217.6 3.46695C217.586 2.55182 217.217 1.67804 216.569 1.03087C215.922 0.383704 215.048 0.0140485 214.133 0.000284846C213.674 -0.0145416 213.217 0.0649879 212.789 0.233957C212.362 0.402926 211.974 0.657743 211.649 0.982657C211.324 1.30757 211.069 1.69567 210.9 2.12297C210.731 2.55028 210.652 3.00769 210.667 3.46695C210.652 3.92621 210.731 4.38363 210.9 4.81093C211.069 5.23823 211.324 5.62633 211.649 5.95125C211.974 6.27616 212.362 6.53098 212.789 6.69995C213.217 6.86892 213.674 6.94844 214.133 6.93362ZM214.133 0.800285C214.507 0.798411 214.877 0.875147 215.219 1.02552C215.562 1.17589 215.868 1.39653 216.12 1.67312C216.371 1.94972 216.562 2.27609 216.679 2.63107C216.796 2.98604 216.837 3.36168 216.8 3.73362C216.803 4.46752 216.531 5.17589 216.037 5.71894C215.543 6.26198 214.864 6.60024 214.133 6.66695C213.76 6.66883 213.389 6.59209 213.047 6.44172C212.705 6.29135 212.398 6.07071 212.147 5.79411C211.895 5.51752 211.705 5.19114 211.588 4.83617C211.471 4.4812 211.429 4.10555 211.467 3.73362C211.429 3.36168 211.471 2.98604 211.588 2.63107C211.705 2.27609 211.895 1.94972 212.147 1.67312C212.398 1.39653 212.705 1.17589 213.047 1.02552C213.389 0.875147 213.76 0.798411 214.133 0.800285Z" fill="white"/>
<path d="M213.333 4.00007H214.133L215.2 5.60007H215.733L214.666 4.00007C214.81 4.01223 214.954 3.99299 215.089 3.94369C215.224 3.89438 215.346 3.81621 215.448 3.71462C215.549 3.61304 215.627 3.4905 215.677 3.35556C215.726 3.22062 215.745 3.07655 215.733 2.9334C215.733 2.1334 215.2 1.86674 214.4 1.86674H212.8V5.86673H213.333V4.00007ZM213.333 2.1334H214.133C214.666 2.1334 214.933 2.1334 214.933 2.66674C214.933 3.20007 214.4 3.20007 213.866 3.20007H213.066V2.1334H213.333ZM102.933 0.266735C102.442 0.19148 101.941 0.214945 101.459 0.335755C100.978 0.456565 100.525 0.672291 100.127 0.9703C99.7302 1.26831 99.3963 1.64261 99.1454 2.07127C98.8945 2.49994 98.7317 2.97436 98.6665 3.46673L89.3332 30.6667L83.4665 21.6001C85.6305 21.0561 87.5356 19.7713 88.8509 17.9689C90.1662 16.1664 90.8086 13.9602 90.6665 11.7334C90.6491 10.21 90.3318 8.70502 89.7327 7.3043C89.1336 5.90358 88.2644 4.63459 87.1749 3.56979C86.0853 2.50499 84.7967 1.66524 83.3825 1.0985C81.9684 0.53176 80.4565 0.249124 78.9332 0.266735H67.7332C67.3089 0.251835 66.8861 0.324415 66.4912 0.479958C66.0962 0.6355 65.7374 0.870675 65.4373 1.17085C65.1371 1.47102 64.9019 1.82976 64.7464 2.22474C64.5908 2.61972 64.5183 3.04249 64.5332 3.46673V31.4667H71.9998V5.86673H76.5332C82.6665 5.86673 83.7332 9.86674 83.7332 11.7334C83.7332 17.6001 78.3998 17.8667 74.6665 18.1334L82.3998 31.4667H97.0665L98.6665 26.1334H110.4L112 31.4667H120.266L109.866 0.266735H102.933ZM99.7332 21.3334L104.533 5.3334L109.333 21.3334H99.7332Z" fill="white"/>
</g>
<path d="M2.98 56H4.52V44.68L9.62 52.16H9.7L14.8 44.66V56H16.38V42H14.78L9.68 49.64L4.58 42H2.98V56ZM30.8433 56.24C35.1033 56.24 38.0033 52.86 38.0033 49C38.0233 48.98 38.0233 48.98 38.0033 48.96C38.0033 45.1 35.1433 41.76 30.8833 41.76C26.6233 41.76 23.7233 45.14 23.7233 49V49.04C23.7233 52.9 26.5833 56.24 30.8433 56.24ZM30.8833 54.78C27.6833 54.78 25.3633 52.18 25.3633 49V48.96C25.3633 45.78 27.6433 43.22 30.8433 43.22C34.0433 43.22 36.3633 45.82 36.3633 49V49.04C36.3633 52.22 34.0833 54.78 30.8833 54.78ZM45.3355 56H51.5555C54.6155 56 56.6355 54.58 56.6355 52.18V52.14C56.6355 50.22 55.2955 49.26 53.6355 48.76C54.7355 48.28 55.8555 47.34 55.8555 45.52V45.48C55.8555 44.58 55.5355 43.84 54.9555 43.24C54.1555 42.46 52.8955 42 51.2955 42H45.3355V56ZM46.8955 48.24V43.42H51.1555C53.1555 43.42 54.2555 44.32 54.2555 45.7V45.74C54.2555 47.38 52.9355 48.24 51.0355 48.24H46.8955ZM46.8955 54.58V49.64H51.3155C53.7555 49.64 55.0355 50.52 55.0355 52.04V52.08C55.0355 53.64 53.7155 54.58 51.5955 54.58H46.8955ZM63.9091 56H65.4891V42H63.9091V56ZM73.5894 56H83.0494V54.54H75.1694V42H73.5894V56ZM89.9722 56H100.192V54.56H91.5522V49.66H99.1922V48.22H91.5522V43.44H100.092V42H89.9722V56ZM117.367 56H118.947V51.06H122.347C125.327 51.06 127.847 49.5 127.847 46.48V46.44C127.847 43.68 125.767 42 122.607 42H117.367V56ZM118.947 49.62V43.46H122.487C124.747 43.46 126.247 44.5 126.247 46.5V46.54C126.247 48.38 124.727 49.62 122.407 49.62H118.947ZM141.226 56.24C145.486 56.24 148.386 52.86 148.386 49C148.406 48.98 148.406 48.98 148.386 48.96C148.386 45.1 145.526 41.76 141.266 41.76C137.006 41.76 134.106 45.14 134.106 49V49.04C134.106 52.9 136.966 56.24 141.226 56.24ZM141.266 54.78C138.066 54.78 135.746 52.18 135.746 49V48.96C135.746 45.78 138.026 43.22 141.226 43.22C144.426 43.22 146.746 45.82 146.746 49V49.04C146.746 52.22 144.466 54.78 141.266 54.78ZM159.638 56.1H160.958L164.818 44.74L168.658 56.1H169.998L174.998 42H173.338L169.338 53.66L165.498 41.96H164.198L160.358 53.66L156.358 42H154.638L159.638 56.1ZM181.867 56H192.087V54.56H183.447V49.66H191.087V48.22H183.447V43.44H191.987V42H181.867V56ZM199.265 56H200.845V50.56H204.805H204.845L208.905 56H210.845L206.545 50.28C208.745 49.88 210.345 48.52 210.345 46.2V46.16C210.345 45.06 209.945 44.08 209.265 43.4C208.385 42.52 207.005 42 205.285 42H199.265V56ZM200.845 49.14V43.46H205.165C207.425 43.46 208.745 44.5 208.745 46.22V46.26C208.745 48.06 207.245 49.14 205.145 49.14H200.845Z" fill="white" fill-opacity="0.8"/>
<defs>
<clipPath id="clip0_380_656">
<rect width="217.6" height="32" fill="white"/>
</clipPath>
</defs>
</svg>
