<svg width="128" height="128" viewBox="0 0 128 128" fill="none" xmlns="http://www.w3.org/2000/svg">
<path d="M10.6773 64.0107C10.6835 90.2474 29.7621 112.587 55.6746 116.699V79.424H42.144V64.0107H55.6906V52.2773C55.0851 46.7175 56.9841 41.1765 60.8727 37.157C64.7614 33.1374 70.2365 31.0561 75.8133 31.4773C79.8162 31.542 83.809 31.8985 87.76 32.544V45.6587H81.0186C78.6978 45.3547 76.3645 46.1212 74.6761 47.7422C72.9876 49.3633 72.1268 51.6634 72.336 53.9947V64.0107H87.1146L84.752 79.4293H72.336V116.699C100.36 112.27 120.011 86.6762 117.053 58.4591C114.096 30.242 89.5642 9.27962 61.231 10.7583C32.8979 12.237 10.6818 35.639 10.6773 64.0107Z" fill="black"/>
</svg>
