<svg width="218" height="61" viewBox="0 0 218 61" fill="none" xmlns="http://www.w3.org/2000/svg">
<g clip-path="url(#clip0_231_479)">
<path d="M181.067 0.266952H176.8C176.376 0.252052 175.953 0.324632 175.558 0.480174C175.163 0.635716 174.805 0.870892 174.504 1.17106C174.204 1.47123 173.969 1.82997 173.813 2.22496C173.658 2.61994 173.585 3.04271 173.6 3.46695V31.467H192.267L193.867 25.867H181.067V0.266952ZM204.534 0.266952H200.267C199.843 0.252052 199.42 0.324632 199.025 0.480174C198.63 0.635716 198.271 0.870892 197.971 1.17106C197.671 1.47123 197.436 1.82997 197.28 2.22496C197.125 2.61994 197.052 3.04271 197.067 3.46695V31.467H216L217.6 25.867H204.8V0.266952H204.534ZM52.2669 3.46695V20.0003C52.3535 20.8392 52.2566 21.6869 51.9828 22.4846C51.7091 23.2823 51.265 24.0109 50.6815 24.6198C50.0979 25.2287 49.3889 25.7034 48.6035 26.0108C47.8182 26.3183 46.9754 26.4512 46.1335 26.4003C45.2963 26.4333 44.4615 26.2882 43.6845 25.9746C42.9075 25.6609 42.2059 25.1859 41.6262 24.581C41.0464 23.976 40.6017 23.2548 40.3214 22.4652C40.0411 21.6755 39.9316 20.8354 40.0002 20.0003V0.266952H32.5335V18.9336C32.5335 27.7336 37.6002 32.0003 46.1335 32.0003C54.6669 32.0003 59.7335 27.7336 59.7335 18.9336V0.266952H55.4669C54.6225 0.280684 53.8165 0.622235 53.2193 1.2194C52.6222 1.81657 52.2806 2.62254 52.2669 3.46695ZM156 18.1336H166.667V12.5336H156V5.86695H169.067V0.266952H148.534V28.267C148.508 28.6714 148.565 29.0769 148.7 29.459C148.835 29.841 149.046 30.192 149.32 30.4907C149.594 30.7895 149.925 31.0299 150.294 31.1976C150.663 31.3654 151.062 31.457 151.467 31.467H168.267L169.867 25.867H156V18.1336ZM120 16.0003C119.852 18.0238 120.133 20.0558 120.824 21.9635C121.515 23.8712 122.601 25.6116 124.01 27.0713C125.419 28.5309 127.121 29.6768 129.003 30.4343C130.885 31.1917 132.906 31.5436 134.934 31.467H143.2V25.867H138.667C133.067 25.867 127.734 24.0003 127.734 16.0003C127.734 8.00029 133.067 6.13362 138.667 6.13362H143.2V0.266952H134.934C126.4 0.266952 120 6.13362 120 16.0003ZM13.8669 0.266952H3.2002C2.77595 0.252052 2.35318 0.324632 1.9582 0.480174C1.56322 0.635716 1.20448 0.870892 0.904308 1.17106C0.604137 1.47123 0.368962 1.82997 0.21342 2.22496C0.0578775 2.61994 -0.0147026 3.04271 0.000197115 3.46695V31.467H13.8669C15.8944 31.5436 17.9152 31.1917 19.7975 30.4343C21.6798 29.6768 23.3811 28.5309 24.7904 27.0713C26.1997 25.6116 27.2852 23.8712 27.9762 21.9635C28.6671 20.0558 28.9479 18.0238 28.8002 16.0003C28.8002 6.13362 22.4002 0.266952 13.8669 0.266952ZM10.4002 25.867H7.73353V6.13362H10.4002C16.0002 6.13362 21.3335 8.00029 21.3335 16.0003C21.3335 24.0003 16.0002 25.867 10.4002 25.867ZM214.134 6.93362C214.593 6.94844 215.05 6.86892 215.478 6.69995C215.905 6.53098 216.293 6.27616 216.618 5.95125C216.943 5.62633 217.198 5.23823 217.367 4.81093C217.536 4.38363 217.615 3.92621 217.6 3.46695C217.586 2.55182 217.217 1.67804 216.57 1.03087C215.922 0.383704 215.049 0.0140485 214.134 0.000284846C213.674 -0.0145416 213.217 0.0649879 212.79 0.233957C212.362 0.402926 211.974 0.657743 211.649 0.982656C211.324 1.30757 211.07 1.69567 210.901 2.12297C210.732 2.55028 210.652 3.00769 210.667 3.46695C210.652 3.92621 210.732 4.38363 210.901 4.81093C211.07 5.23823 211.324 5.62633 211.649 5.95125C211.974 6.27616 212.362 6.53098 212.79 6.69995C213.217 6.86892 213.674 6.94844 214.134 6.93362ZM214.134 0.800285C214.507 0.798411 214.877 0.875147 215.22 1.02552C215.562 1.17589 215.869 1.39653 216.12 1.67312C216.372 1.94972 216.562 2.27609 216.679 2.63107C216.796 2.98604 216.838 3.36168 216.8 3.73362C216.803 4.46752 216.531 5.17589 216.037 5.71894C215.544 6.26198 214.864 6.60024 214.134 6.66695C213.76 6.66883 213.39 6.59209 213.047 6.44172C212.705 6.29135 212.398 6.07071 212.147 5.79411C211.896 5.51752 211.705 5.19114 211.588 4.83617C211.471 4.4812 211.43 4.10555 211.467 3.73362C211.43 3.36168 211.471 2.98604 211.588 2.63107C211.705 2.27609 211.896 1.94972 212.147 1.67312C212.398 1.39653 212.705 1.17589 213.047 1.02552C213.39 0.875147 213.76 0.798411 214.134 0.800285Z" fill="#212225"/>
<path d="M213.333 4.00007H214.133L215.2 5.60007H215.733L214.667 4.00007C214.81 4.01223 214.954 3.99299 215.089 3.94369C215.224 3.89438 215.346 3.81621 215.448 3.71462C215.55 3.61304 215.628 3.4905 215.677 3.35556C215.726 3.22062 215.746 3.07655 215.733 2.9334C215.733 2.1334 215.2 1.86673 214.4 1.86673H212.8V5.86673H213.333V4.00007ZM213.333 2.1334H214.133C214.667 2.1334 214.933 2.1334 214.933 2.66674C214.933 3.20007 214.4 3.20007 213.867 3.20007H213.067V2.1334H213.333ZM102.933 0.266735C102.442 0.19148 101.941 0.214945 101.46 0.335755C100.978 0.456565 100.525 0.672291 100.128 0.9703C99.7304 1.26831 99.3965 1.64261 99.1456 2.07127C98.8948 2.49994 98.732 2.97436 98.6667 3.46673L89.3334 30.6667L83.4667 21.6001C85.6307 21.0561 87.5359 19.7713 88.8512 17.9689C90.1665 16.1664 90.8088 13.9602 90.6667 11.7334C90.6493 10.21 90.332 8.70502 89.7329 7.3043C89.1338 5.90358 88.2647 4.63459 87.1751 3.56979C86.0856 2.50499 84.7969 1.66524 83.3828 1.0985C81.9687 0.53176 80.4568 0.249124 78.9334 0.266735H67.7334C67.3092 0.251835 66.8864 0.324415 66.4914 0.479958C66.0964 0.6355 65.7377 0.870675 65.4375 1.17085C65.1373 1.47102 64.9022 1.82976 64.7466 2.22474C64.5911 2.61972 64.5185 3.04249 64.5334 3.46673V31.4667H72.0001V5.86673H76.5334C82.6667 5.86673 83.7334 9.86674 83.7334 11.7334C83.7334 17.6001 78.4001 17.8667 74.6667 18.1334L82.4001 31.4667H97.0667L98.6667 26.1334H110.4L112 31.4667H120.267L109.867 0.266735H102.933ZM99.7334 21.3334L104.533 5.3334L109.333 21.3334H99.7334Z" fill="#212225"/>
</g>
<path d="M2.98 56H4.52V44.68L9.62 52.16H9.7L14.8 44.66V56H16.38V42H14.78L9.68 49.64L4.58 42H2.98V56ZM30.8433 56.24C35.1033 56.24 38.0033 52.86 38.0033 49C38.0233 48.98 38.0233 48.98 38.0033 48.96C38.0033 45.1 35.1433 41.76 30.8833 41.76C26.6233 41.76 23.7233 45.14 23.7233 49V49.04C23.7233 52.9 26.5833 56.24 30.8433 56.24ZM30.8833 54.78C27.6833 54.78 25.3633 52.18 25.3633 49V48.96C25.3633 45.78 27.6433 43.22 30.8433 43.22C34.0433 43.22 36.3633 45.82 36.3633 49V49.04C36.3633 52.22 34.0833 54.78 30.8833 54.78ZM45.3355 56H51.5555C54.6155 56 56.6355 54.58 56.6355 52.18V52.14C56.6355 50.22 55.2955 49.26 53.6355 48.76C54.7355 48.28 55.8555 47.34 55.8555 45.52V45.48C55.8555 44.58 55.5355 43.84 54.9555 43.24C54.1555 42.46 52.8955 42 51.2955 42H45.3355V56ZM46.8955 48.24V43.42H51.1555C53.1555 43.42 54.2555 44.32 54.2555 45.7V45.74C54.2555 47.38 52.9355 48.24 51.0355 48.24H46.8955ZM46.8955 54.58V49.64H51.3155C53.7555 49.64 55.0355 50.52 55.0355 52.04V52.08C55.0355 53.64 53.7155 54.58 51.5955 54.58H46.8955ZM63.9091 56H65.4891V42H63.9091V56ZM73.5894 56H83.0494V54.54H75.1694V42H73.5894V56ZM89.9722 56H100.192V54.56H91.5522V49.66H99.1922V48.22H91.5522V43.44H100.092V42H89.9722V56ZM117.367 56H118.947V51.06H122.347C125.327 51.06 127.847 49.5 127.847 46.48V46.44C127.847 43.68 125.767 42 122.607 42H117.367V56ZM118.947 49.62V43.46H122.487C124.747 43.46 126.247 44.5 126.247 46.5V46.54C126.247 48.38 124.727 49.62 122.407 49.62H118.947ZM141.226 56.24C145.486 56.24 148.386 52.86 148.386 49C148.406 48.98 148.406 48.98 148.386 48.96C148.386 45.1 145.526 41.76 141.266 41.76C137.006 41.76 134.106 45.14 134.106 49V49.04C134.106 52.9 136.966 56.24 141.226 56.24ZM141.266 54.78C138.066 54.78 135.746 52.18 135.746 49V48.96C135.746 45.78 138.026 43.22 141.226 43.22C144.426 43.22 146.746 45.82 146.746 49V49.04C146.746 52.22 144.466 54.78 141.266 54.78ZM159.638 56.1H160.958L164.818 44.74L168.658 56.1H169.998L174.998 42H173.338L169.338 53.66L165.498 41.96H164.198L160.358 53.66L156.358 42H154.638L159.638 56.1ZM181.867 56H192.087V54.56H183.447V49.66H191.087V48.22H183.447V43.44H191.987V42H181.867V56ZM199.265 56H200.845V50.56H204.805H204.845L208.905 56H210.845L206.545 50.28C208.745 49.88 210.345 48.52 210.345 46.2V46.16C210.345 45.06 209.945 44.08 209.265 43.4C208.385 42.52 207.005 42 205.285 42H199.265V56ZM200.845 49.14V43.46H205.165C207.425 43.46 208.745 44.5 208.745 46.22V46.26C208.745 48.06 207.245 49.14 205.145 49.14H200.845Z" fill="black" fill-opacity="0.8"/>
<defs>
<clipPath id="clip0_231_479">
<rect width="217.6" height="32" fill="white"/>
</clipPath>
</defs>
</svg>
