<svg width="128" height="128" viewBox="0 0 128 128" fill="none" xmlns="http://www.w3.org/2000/svg">
<path d="M64.0107 112.219C50.8907 112.219 49.344 112.149 44.224 111.925C40.2313 111.794 36.2903 110.982 32.5707 109.525C26.135 107.021 21.0461 101.93 18.544 95.4933C17.143 91.7602 16.3873 87.8159 16.3093 83.8293C16.0107 78.72 16.0107 77.0453 16.0107 64.0267C16.0107 50.8693 16.08 49.3333 16.3093 44.24C16.389 40.2588 17.1447 36.32 18.544 32.592C21.0434 26.1468 26.1406 21.0516 32.5867 18.5547C36.3128 17.1478 40.2525 16.3901 44.2347 16.3147C49.328 16.0267 51.0027 16.0267 64.0107 16.0267C77.2373 16.0267 78.7573 16.096 83.7974 16.3147C87.7898 16.3908 91.74 17.1483 95.4774 18.5547C101.922 21.0544 107.018 26.1487 109.52 32.592C110.945 36.3744 111.704 40.3747 111.765 44.416C112.064 49.5253 112.064 51.1947 112.064 64.208C112.064 77.2213 111.989 78.928 111.765 83.9787C111.686 87.9691 110.928 91.9169 109.525 95.6533C107.017 102.094 101.92 107.187 95.4774 109.691C91.7453 111.089 87.8033 111.845 83.8187 111.925C78.7254 112.219 77.056 112.219 64.0107 112.219ZM63.8294 24.4693C50.784 24.4693 49.4294 24.5333 44.336 24.7627C41.2959 24.8029 38.2852 25.364 35.4347 26.4213C31.2254 28.0321 27.8946 31.3493 26.2667 35.552C25.2012 38.4336 24.6401 41.4772 24.608 44.5493C24.3253 49.7173 24.3253 51.072 24.3253 64.0267C24.3253 76.8267 24.3733 78.3787 24.608 83.5147C24.6558 86.5557 25.2165 89.5669 26.2667 92.4213C27.897 96.6213 31.2272 99.936 35.4347 101.547C38.2833 102.611 41.2952 103.172 44.336 103.205C49.4987 103.504 50.8587 103.504 63.8294 103.504C76.912 103.504 78.2667 103.44 83.3173 103.205C86.3595 103.168 89.3725 102.607 92.224 101.547C96.4078 99.9221 99.717 96.6149 101.344 92.432C102.407 89.548 102.968 86.503 103.003 83.4293H103.061C103.291 78.3307 103.291 76.9707 103.291 63.9413C103.291 50.912 103.232 49.5413 103.003 44.448C102.955 41.4104 102.394 38.4027 101.344 35.552C99.7207 31.3631 96.4111 28.0496 92.224 26.4213C89.3731 25.3586 86.3597 24.7975 83.3173 24.7627C78.16 24.4693 76.8107 24.4693 63.8294 24.4693ZM64.0107 88.6613C54.0373 88.6678 45.0422 82.6653 41.2206 73.4531C37.399 64.241 39.5035 53.6338 46.5527 46.5785C53.6019 39.5232 64.2073 37.4094 73.4227 41.2231C82.6382 45.0368 88.6485 54.0266 88.6507 64C88.636 77.6057 77.6163 88.6349 64.0107 88.6613ZM64.0107 47.9893C55.1741 47.9893 48.0107 55.1528 48.0107 63.9893C48.0107 72.8259 55.1741 79.9893 64.0107 79.9893C72.8472 79.9893 80.0107 72.8259 80.0107 63.9893C79.9902 55.1613 72.8387 48.0099 64.0107 47.9893ZM89.6107 44.1867C86.4396 44.1749 83.8768 41.5978 83.8827 38.4267C83.8886 35.2556 86.4609 32.688 89.632 32.688C92.8031 32.688 95.3754 35.2556 95.3814 38.4267C95.3828 39.9566 94.7749 41.4241 93.6921 42.505C92.6093 43.5858 91.1406 44.1909 89.6107 44.1867Z" fill="black"/>
</svg>
