<svg width="128" height="128" viewBox="0 0 128 128" fill="none" xmlns="http://www.w3.org/2000/svg">
<path d="M69.3333 112H48V48H69.3333V58.6667C73.8807 52.8814 80.7767 49.4324 88.1333 49.264C101.363 49.3374 112.038 60.1034 112 73.3333V112H90.6667V76C89.8135 70.0407 84.7027 65.6191 78.6827 65.632C76.0495 65.7152 73.564 66.8681 71.7997 68.8246C70.0354 70.7812 69.1448 73.3723 69.3333 76V112ZM37.3333 112H16V48H37.3333V112ZM26.6667 37.3333C20.7756 37.3333 16 32.5577 16 26.6667C16 20.7756 20.7756 16 26.6667 16C32.5577 16 37.3333 20.7756 37.3333 26.6667C37.3333 29.4956 36.2095 32.2088 34.2091 34.2091C32.2088 36.2095 29.4956 37.3333 26.6667 37.3333Z" fill="black"/>
</svg>
