<svg width="128" height="128" viewBox="0 0 128 128" fill="none" xmlns="http://www.w3.org/2000/svg">
<path d="M64.032 101.397H63.9254C63.5947 101.397 30.512 101.333 22.1653 99.0667C17.5756 97.8302 13.9912 94.2438 12.7573 89.6533C11.2564 81.1859 10.5316 72.5992 10.592 64C10.5532 55.3867 11.2976 46.7878 12.816 38.3093C14.0838 33.7147 17.6524 30.1117 22.2347 28.8C30.352 26.6667 62.5227 26.6667 63.888 26.6667H64C64.336 26.6667 97.504 26.7307 105.765 28.9973C110.345 30.2401 113.923 33.8192 115.163 38.4C116.711 46.8989 117.438 55.5271 117.333 64.1653C117.371 72.7682 116.625 81.3565 115.104 89.824C113.854 94.4087 110.268 97.9873 105.68 99.2267C97.5733 101.376 65.3973 101.397 64.032 101.397ZM53.3653 48.0267L53.3387 80.0267L81.136 64.0267L53.3653 48.0267Z" fill="black"/>
</svg>
